<?xml version="1.0" encoding="UTF-8"?>
<svg version="1.1" xmlns="http://www.w3.org/2000/svg" width="125" height="127">
<path d="M0 0 C5.90256969 -0.67500797 5.90256969 -0.67500797 8.72900391 1.06347656 C10.46901583 2.53975757 12.14307713 4.06946573 13.8125 5.625 C18.20074377 9.56265435 18.20074377 9.56265435 23.63671875 11.28515625 C26.02429878 10.72137294 26.02429878 10.72137294 28.37109375 9.83984375 C35.74741596 7.48336637 44.6985839 8.43739275 52.03515625 10.66015625 C54.69424242 11.12007772 56.42179414 10.81354971 59 10 C61.61450936 8.07744478 63.9760281 5.96580707 66.40234375 3.8125 C69.38878539 1.72872719 71.37746199 1.15771594 75 1 C78 3 78 3 78.62841797 5.69873047 C78.74846191 6.82682129 78.86850586 7.95491211 78.9921875 9.1171875 C79.14042969 10.365 79.28867188 11.6128125 79.44140625 12.8984375 C79.73004395 15.50967653 80.00751724 18.12192416 80.28515625 20.734375 C81.30595869 29.26723643 83.38450707 36.22965246 87 44 C91.73560592 56.80575092 89.32091698 70.92696182 83.875 83.0625 C79.76941094 90.87556039 73.19453735 96.83818028 67 103 C67.37253906 104.03640625 67.74507813 105.0728125 68.12890625 106.140625 C68.60732727 107.51022242 69.08516121 108.88002502 69.5625 110.25 C69.9327832 111.27287109 69.9327832 111.27287109 70.31054688 112.31640625 C72.47053761 118.58342161 72.47053761 118.58342161 71 122 C66.12289097 121.64625907 63.35434843 120.10061732 59.49560547 117.35571289 C52.30305226 112.24419569 47.45571422 110.13760471 38.4375 110.82421875 C25.97801103 111.46135171 13.6202462 106.13717799 4.1875 98.25 C-6.01002175 88.47660664 -12.0182778 76.71035494 -12.54003906 62.54077148 C-12.62287068 52.94040674 -12.00554341 42.98325199 -6.49780273 34.75610352 C-4.73894492 31.51963313 -4.32115105 28.92274136 -3.8671875 25.2734375 C-3.70089844 23.9946875 -3.53460938 22.7159375 -3.36328125 21.3984375 C-3.1999823 20.05735713 -3.03722753 18.7162104 -2.875 17.375 C-2.54358808 14.73637816 -2.20556501 12.09868347 -1.8671875 9.4609375 C-1.72394043 8.29353027 -1.58069336 7.12612305 -1.43310547 5.92333984 C-1 3 -1 3 0 0 Z " fill="#4E2879" transform="translate(14,4)"/>
<path d="M0 0 C6.94581967 5.66219797 12.33000295 12.04156951 15.8125 20.3125 C15.8125 20.9725 15.8125 21.6325 15.8125 22.3125 C-1.10133886 26.33621324 -18.12787285 28.57711335 -35.375 30.625 C-36.50097595 30.75964661 -37.6269519 30.89429321 -38.78704834 31.03302002 C-42.03839417 31.41956845 -45.29042497 31.79945635 -48.54296875 32.17578125 C-49.52650833 32.29116745 -50.51004791 32.40655365 -51.52339172 32.5254364 C-56.10455902 33.04372582 -60.5676041 33.45308242 -65.1875 33.3125 C-65.78429352 22.3712854 -62.08061604 14.73102377 -55.1875 6.3125 C-41.3308255 -8.97410159 -16.80628163 -11.64759673 0 0 Z " fill="#F18E2C" transform="translate(76.1875,28.6875)"/>
<path d="M0 0 C1.17816469 3.72563248 2.34048913 7.45602389 3.5 11.1875 C3.83386719 12.24259766 4.16773438 13.29769531 4.51171875 14.38476562 C4.82753906 15.40634766 5.14335938 16.42792969 5.46875 17.48046875 C5.76201172 18.41785889 6.05527344 19.35524902 6.35742188 20.32104492 C7.39848388 24.66130837 7.56334109 27.05439174 5.25 30.9375 C-0.15080093 36.90924275 -9.22394811 40.41305063 -17 42 C-19.9375 42.125 -19.9375 42.125 -22 42 C-22.28125 39.2890625 -22.28125 39.2890625 -22 36 C-20.03125 33.5859375 -20.03125 33.5859375 -17.5 31.375 C-14.98367456 29.24190333 -14.98367456 29.24190333 -13 27 C-13 25.68 -13 24.36 -13 23 C-15.40059817 21.79970092 -16.89360649 21.88540257 -19.5703125 21.90234375 C-20.91416016 21.90717773 -20.91416016 21.90717773 -22.28515625 21.91210938 C-23.22230469 21.92048828 -24.15945312 21.92886719 -25.125 21.9375 C-26.54232422 21.94426758 -26.54232422 21.94426758 -27.98828125 21.95117188 C-30.32558387 21.96297643 -32.66276061 21.97944241 -35 22 C-35.89928633 24.26980752 -35.89928633 24.26980752 -36 27 C-33.88940436 29.53359601 -31.50930343 31.48289982 -29.00390625 33.62109375 C-27 36 -27 36 -26.71484375 39.28515625 C-26.85599609 40.62900391 -26.85599609 40.62900391 -27 42 C-37.23947428 41.95469259 -47.42940412 37.76926658 -54.9140625 30.66796875 C-56.70134402 27.92275577 -56.36282983 25.8407209 -55.7109375 22.71484375 C-55.47632812 21.81894531 -55.24171875 20.92304687 -55 20 C-54.74476562 18.80503906 -54.48953125 17.61007813 -54.2265625 16.37890625 C-52.46419925 9.02066311 -52.46419925 9.02066311 -51 6 C-46.13708872 3.87235838 -41.06007759 3.31977776 -35.83984375 2.67578125 C-34.97235001 2.56525925 -34.10485626 2.45473724 -33.21107483 2.34086609 C-31.38516324 2.11014323 -29.55885189 1.88256461 -27.73217773 1.65795898 C-24.94176694 1.31302745 -22.15357777 0.95301688 -19.36523438 0.59179688 C-17.58605183 0.36887727 -15.80675823 0.14684188 -14.02734375 -0.07421875 C-13.19702133 -0.18247482 -12.36669891 -0.2907309 -11.51121521 -0.40226746 C-7.42925022 -0.89206957 -4.02091071 -1.15875659 0 0 Z " fill="#30BBE4" transform="translate(77,63)"/>
<path d="M0 0 C3.02182284 2.05741129 4.69011377 3.49949825 5.4453125 7.15625 C5.65056702 11.26134032 5.33688603 13.46098235 3.125 17 C-0.09638838 20.03189494 -2.44184095 20.42554363 -6.890625 20.328125 C-9.74337309 19.88436419 -11.84232052 18.75565155 -13.92578125 16.7578125 C-16.17308416 13.08040773 -15.91390612 9.09241786 -15 5 C-10.6427052 -0.7704715 -6.91725867 -1.66968313 0 0 Z M-7 2 C-7.66 2.66 -8.32 3.32 -9 4 C-6.69 4.33 -4.38 4.66 -2 5 C-2.061875 5.9075 -2.12375 6.815 -2.1875 7.75 C-1.98327924 11.28982642 -1.35448165 12.44931155 1 15 C2.30059064 12.26814404 2.30059064 12.26814404 3 9 C1.46079825 5.43553279 0.25728341 4.17152227 -3 2 C-4.32 2 -5.64 2 -7 2 Z M-11 5 C-12.60339848 8.11771927 -13.18974141 9.39011689 -12.125 12.8125 C-11.75375 13.534375 -11.3825 14.25625 -11 15 C-10.67 15 -10.34 15 -10 15 C-10 11.7 -10 8.4 -10 5 C-10.33 5 -10.66 5 -11 5 Z M-6 11 C-6 12.32 -6 13.64 -6 15 C-7.32 15.33 -8.64 15.66 -10 16 C-7.23749964 17.38125018 -5.05268901 17.19079306 -2 17 C-1.34 16.34 -0.68 15.68 0 15 C-1.32 15 -2.64 15 -4 15 C-4.66 13.68 -5.32 12.36 -6 11 Z " fill="#4D2877" transform="translate(118,18)"/>
<path d="M0 0 C0.38999191 7.59762024 -0.39241413 13.84466021 -3 21 C-5.37599719 17.43600422 -6.15731805 13.91618826 -7.125 9.8125 C-7.30675781 9.06291016 -7.48851563 8.31332031 -7.67578125 7.54101562 C-8.12251686 5.69529219 -8.5619694 3.84780868 -9 2 C-5.62902617 0.50178941 -3.79557881 0 0 0 Z " fill="#31B9E2" transform="translate(94,59)"/>
<path d="M0 0 C4.95 0 9.9 0 15 0 C15 1.32 15 2.64 15 4 C12.1491069 6.45309406 10.27357283 8 6.4375 8 C3.48069505 6.78695182 1.38285046 5.11052469 -1 3 C-0.67 2.01 -0.34 1.02 0 0 Z " fill="#522978" transform="translate(45,45)"/>
<path d="M0 0 C2.5 0.25 2.5 0.25 4.5 2.25 C4.75 5.25 4.75 5.25 4.5 8.25 C2.5 10.25 2.5 10.25 0.0625 10.5625 C-2.5 10.25 -2.5 10.25 -4.375 9.0625 C-5.5 7.25 -5.5 7.25 -5.3125 4.6875 C-4.22827241 1.43481722 -3.47807945 0.34780795 0 0 Z " fill="#532A78" transform="translate(66.5,32.75)"/>
<path d="M0 0 C2.5 0.25 2.5 0.25 4.5 2.25 C4.75 5.25 4.75 5.25 4.5 8.25 C2.5 10.25 2.5 10.25 0.0625 10.5625 C-2.5 10.25 -2.5 10.25 -4.375 9.0625 C-5.5 7.25 -5.5 7.25 -5.3125 4.6875 C-4.22827241 1.43481722 -3.47807945 0.34780795 0 0 Z " fill="#532A78" transform="translate(38.5,32.75)"/>
<path d="M0 0 C1.2684375 0.12375 1.2684375 0.12375 2.5625 0.25 C4.5625 3.25 4.5625 3.25 4.25 5.375 C3.5625 7.25 3.5625 7.25 2.5625 8.25 C0.125 8.5 0.125 8.5 -2.4375 8.25 C-4.4375 5.25 -4.4375 5.25 -4.125 3.125 C-3.1232041 0.39282935 -2.97911982 0.30555075 0 0 Z " fill="#4C317F" transform="translate(66.4375,70.75)"/>
<path d="M0 0 C2.5625 0.1875 2.5625 0.1875 4.5625 2.1875 C4.00694444 6.74305556 4.00694444 6.74305556 2.5625 8.1875 C0.0625 8.3125 0.0625 8.3125 -2.4375 8.1875 C-3.4375 7.1875 -3.4375 7.1875 -3.5625 4.1875 C-3.39891479 0.26145498 -3.39891479 0.26145498 0 0 Z " fill="#4D2D7D" transform="translate(37.4375,70.8125)"/>
<path d="M0 0 C1.85776765 3.13498292 2.20140476 5.37471432 2 9 C-1.465 7.02 -1.465 7.02 -5 5 C-3.35 3.35 -1.7 1.7 0 0 Z " fill="#E88A36" transform="translate(83,16)"/>
<path d="M0 0 C4 2 4 2 6 5 C4.02 6.32 2.04 7.64 0 9 C0 6.03 0 3.06 0 0 Z " fill="#E58937" transform="translate(20,16)"/>
</svg>
